<?xml version="1.0" encoding="utf-8"?>
<!-- Generator: Adobe Illustrator 26.3.1, SVG Export Plug-In . SVG Version: 6.00 Build 0)  -->
<svg version="1.1" id="Layer_1" xmlns="http://www.w3.org/2000/svg" xmlns:xlink="http://www.w3.org/1999/xlink" x="0px" y="0px"
	 viewBox="0 0 592.4 183.9" style="enable-background:new 0 0 592.4 183.9;" xml:space="preserve">
<style type="text/css">
	.st0{fill:#FFB300;}
	.st1{fill:#FDB813;}
</style>
<circle class="st0" cx="91.9" cy="91.9" r="85.1"/>
<path class="st0" d="M91.9,183.9c-50.6,0-91.9-41.3-91.9-92C0,41.3,41.3,0,92,0s91.9,41.3,91.9,91.9S142.6,183.9,91.9,183.9z
	 M91.9,13.7c-43.1,0-78.2,35.1-78.2,78.2s35.1,78.2,78.2,78.2s78.2-35.1,78.2-78.2S135.1,13.7,91.9,13.7z"/>
<path d="M75.1,85l-0.5,46.4c0,0,0,0.4,0.2,0.6c0.3,0.2,1.4,0.6,5.2,0.6c3.7,0,4.9-0.5,5.2-0.6c0.3-0.2,0.3-0.5,0.3-0.5L85,85
	c-0.5-0.4-1.9-1-4.9-1C76.9,84,75.6,84.6,75.1,85"/>
<path d="M80,69.6c-6,0-7.4,2-7.4,2L72.5,72c0,0,1.2,0.1,1.7,1.3c0.7,1.6,0.9,7.7,0.9,7.7v4.9c0.8-0.5,2.7,6.3,5.4,6.3
	s3.7-4.1,4.5-3.7L84.9,81c0,0-0.1-5.3,1-7.6c0.6-1.3,1.6-1.5,1.6-1.5v-0.6C87.5,71.3,86,69.6,80,69.6 M98.8,85l-0.4,46.5
	c0,0,0,0.4,0.3,0.5c0.3,0.2,1.4,0.6,5.2,0.6c3.7,0,4.9-0.4,5.2-0.6c0.3-0.2,0.2-0.5,0.2-0.5L108.8,85c-0.5-0.4-1.8-1-5-1
	C100.7,84,99.3,84.6,98.8,85"/>
<path d="M111.2,71.6c0,0-1.4-2-7.4-2s-7.5,1.7-7.5,1.7l0.1,0.6c0,0,1,0.2,1.6,1.5c1.1,2.3,0.9,7.6,0.9,7.6v5.3c0.8-0.4,3.7,2,6.4,2
	s2.7-1.6,3.5-1.2l-0.1-6c0,0,0.2-6.2,0.9-7.8c0.5-1.2,1.7-1.3,1.7-1.3S111.2,71.6,111.2,71.6z"/>
<path d="M145.4,60.1c0,0-1.1-5.3,1.2-8.3c1.1-1.4,2.8-3.6,2.8-3.6v-1.9c0-0.2-0.1-0.2-0.2-0.2h-31.4c-0.2,0-0.3,0.1-0.3,0.2v3.3
	H66.6v-3.3c0-0.1-0.1-0.2-0.3-0.2H34.9c-0.1,0-0.2,0.1-0.2,0.2v1.9c0,0,2.1,2.5,3.1,3.9c1.8,2.7,0.9,8,0.9,8l-10.2,75.4h29.9l2-3
	l4.7-68.7H119l4.7,68.7c0,0-0.4,3.1,2,3.1h29.9C155.6,135.6,145.4,60.1,145.4,60.1z"/>
<path d="M92,22c38.3,0,69.5,31.4,69.5,70s-31.2,70-69.5,70s-69.5-31.4-69.5-70S53.7,22,92,22 M92,10.2c-44.9,0-81.4,36.6-81.4,81.8
	S47,173.8,92,173.8c44.9,0,81.4-36.6,81.4-81.8S136.9,10.2,92,10.2z"/>
<path class="st1" d="M49.8,120.8h-8.2l7.2-53.6h4.7 M134.2,120.8h8.2l-7.2-53.6h-4.7"/>
<path class="st0" d="M185.4,22.8h41.9l31.1,99.1l32.8-99.1h37.7L279,159.6h-45.3L185.4,22.8z M412.6,65.8
	c-1.7-13.8-11.4-18.9-22.2-18.9c-22.9,0-29.9,21-29.9,46.1c0,8.3,0.2,42.8,29.6,42.8c20.1,0,22.2-14.6,22.9-19.9h39.4
	c-0.2,42.8-43.8,46.4-61.6,46.4c-13.3,0-36.8-2.3-51.9-18.2c-15-15.9-17.6-37.7-17.6-51.9c0-18.8,4.4-37.5,17.3-52.1
	c14-15.9,32-20.1,51.9-20.1c22.2,0,39,5.3,49.8,16.7c11,11.8,11.2,24.1,11.4,29.2L412.6,65.8L412.6,65.8z M500.5,22.8v81.3
	c0,7.4,0.6,15,4.4,20.7c5.1,7.6,14,11.2,23.3,11.2c24,0,27.3-19.5,27.3-33.2v-80h36.9V102c0,15.2-2.1,31.6-10.6,41.7
	c-13.3,16.3-37.7,19.5-55,19.5c-64.6,0-64.8-40.2-64.8-62.5l0.2-77.9L500.5,22.8L500.5,22.8z"/>
<path d="M92.9,143.1l37.3,4.5L92.9,152c0,0-9.3,0.1-9.3-4.5C83.6,143,92.9,143.1,92.9,143.1"/>
<path d="M91,152.1l-37.3-4.5l37.3-4.5c0,0,9.3-0.1,9.3,4.5S91,152,91,152.1"/>
<circle cx="92" cy="147.5" r="5.8"/>
<path class="st0" d="M92,141.6c3.2,0,5.8,2.6,5.8,5.8s-2.6,5.8-5.8,5.8c-3.2,0-5.8-2.6-5.8-5.8C86.2,144.3,88.8,141.6,92,141.6
	 M92,138.8c-4.8,0-8.7,3.9-8.7,8.7s3.9,8.7,8.7,8.7c4.8,0,8.7-3.9,8.7-8.7S96.8,138.8,92,138.8z"/>
<g>
	<path d="M92.2,30.7l27.1,3.7l-27.1,3.7c0,0-7.7,0.1-7.7-3.7S92.2,30.7,92.2,30.7"/>
	<path d="M90.7,38.2l-27.1-3.7l27.1-3.7c0,0,7.7-0.1,7.7,3.7S90.7,38.2,90.7,38.2"/>
	<circle cx="91.5" cy="34.4" r="4.9"/>
	<path class="st0" d="M91.5,29.6c2.7,0,4.9,2.2,4.9,4.8c0,2.7-2.2,4.9-4.8,4.9c-2.7,0-4.9-2.2-4.9-4.8
		C86.7,31.7,88.8,29.6,91.5,29.6 M91.5,26.7c-4.2,0-7.7,3.4-7.7,7.7c0,4.2,3.4,7.7,7.7,7.7s7.7-3.4,7.7-7.7
		C99.2,30.2,95.7,26.7,91.5,26.7z"/>
</g>
</svg>
